<svg width="157" height="41" viewBox="0 0 157 41" fill="none" xmlns="http://www.w3.org/2000/svg">
    <path d="M8.96337 35.1862L3.34523 21.7695L4.9699 21.0892L7.47173 27.0638L14.6255 24.0682L12.1237 18.0936L13.7484 17.4133L19.3665 30.8299L17.7418 31.5103L15.229 25.5094L8.07524 28.5051L10.588 34.5059L8.96337 35.1862Z" fill="white"/>
    <path d="M37.1867 17.6788C37.6023 19.1555 37.6948 20.5067 37.4642 21.7324C37.2336 22.9582 36.7355 23.9935 35.9699 24.8386C35.2043 25.6836 34.2244 26.2742 33.0302 26.6102C31.8361 26.9463 30.692 26.9534 29.5981 26.6317C28.5041 26.3099 27.5391 25.6862 26.7032 24.7607C25.8672 23.8351 25.2415 22.6339 24.8259 21.1572C24.4103 19.6805 24.3178 18.3292 24.5484 17.1035C24.779 15.8778 25.2771 14.8424 26.0427 13.9974C26.8083 13.1523 27.7882 12.5618 28.9824 12.2257C30.1765 11.8897 31.3206 11.8826 32.4145 12.2043C33.5085 12.5261 34.4735 13.1497 35.3094 14.0753C36.1454 15.0009 36.7711 16.202 37.1867 17.6788ZM35.5459 18.1405C35.2047 16.9281 34.7139 15.962 34.0736 15.2421C33.4378 14.5208 32.7155 14.0428 31.9067 13.8081C31.1025 13.572 30.2765 13.5733 29.4287 13.8119C28.5809 14.0504 27.8732 14.4808 27.3056 15.1029C26.7425 15.7237 26.3754 16.5082 26.2045 17.4565C26.0381 18.4034 26.1255 19.4831 26.4667 20.6955C26.8079 21.9078 27.2964 22.8746 27.9322 23.5958C28.5725 24.3158 29.2948 24.7938 30.0991 25.0298C30.9079 25.2646 31.7361 25.2627 32.5839 25.0241C33.4316 24.7855 34.1371 24.3558 34.7002 23.735C35.2679 23.1129 35.6349 22.3284 35.8012 21.3814C35.9722 20.4332 35.8871 19.3529 35.5459 18.1405ZM33.9537 29.8919C33.6392 29.9804 33.3379 29.9496 33.0497 29.7995C32.7661 29.6481 32.582 29.422 32.4973 29.1212C32.4127 28.8204 32.4519 28.5314 32.6149 28.2544C32.7825 27.976 33.0236 27.7926 33.3381 27.7041C33.6525 27.6156 33.9516 27.647 34.2352 27.7984C34.5234 27.9485 34.7098 28.1739 34.7945 28.4748C34.8791 28.7756 34.8376 29.0652 34.67 29.3435C34.507 29.6206 34.2682 29.8034 33.9537 29.8919Z" fill="white"/>
    <path d="M57.4913 11.2481L55.7503 11.5149C55.5706 11.0299 55.323 10.6175 55.0075 10.2779C54.6966 9.93753 54.339 9.66661 53.9345 9.46515C53.5339 9.25828 53.1036 9.12304 52.6436 9.05941C52.1836 8.99578 51.7149 9.00055 51.2375 9.07371C50.367 9.20711 49.6121 9.54793 48.9728 10.0962C48.3382 10.6437 47.8782 11.3776 47.5929 12.2979C47.3123 13.2175 47.2674 14.2998 47.4582 15.5447C47.649 16.7897 48.0159 17.8088 48.559 18.6022C49.1068 19.3948 49.7655 19.9573 50.5349 20.2897C51.309 20.6213 52.1314 20.7204 53.0019 20.587C53.4793 20.5139 53.9279 20.3781 54.3477 20.1796C54.7676 19.9811 55.138 19.7256 55.4589 19.4129C55.7838 19.0949 56.0436 18.727 56.2382 18.3091C56.4368 17.8859 56.5496 17.4184 56.5765 16.9065L58.3176 16.6397C58.2991 17.3945 58.1612 18.0887 57.9038 18.7221C57.6464 19.3555 57.2915 19.9153 56.8391 20.4014C56.3859 20.8828 55.8549 21.2779 55.246 21.5868C54.6417 21.8949 53.9769 22.1046 53.2515 22.2157C52.0253 22.4037 50.8889 22.2712 49.8423 21.8185C48.7957 21.3657 47.914 20.629 47.1972 19.6084C46.4803 18.5878 46.0057 17.3193 45.7733 15.8029C45.5409 14.2865 45.6139 12.9341 45.9922 11.7457C46.3706 10.5572 46.9912 9.59032 47.8541 8.84494C48.7171 8.09955 49.7617 7.63291 50.9879 7.44499C51.7133 7.33382 52.4104 7.33477 53.0792 7.44784C53.7527 7.56018 54.378 7.7805 54.9553 8.10878C55.5318 8.43239 56.0377 8.85782 56.4729 9.38509C56.9075 9.90769 57.2469 10.5287 57.4913 11.2481Z" fill="white"/>
    <path d="M77.875 20.0441L78.3086 5.50508L83.3916 5.65668C84.4044 5.68688 85.2345 5.88691 85.8819 6.25675C86.5294 6.62186 87.0054 7.10265 87.3097 7.69911C87.6142 8.29083 87.7558 8.94165 87.7346 9.65156C87.716 10.2763 87.5894 10.7888 87.3548 11.1892C87.125 11.5897 86.8267 11.903 86.4599 12.1289C86.0979 12.3549 85.707 12.5185 85.2871 12.6197L85.2829 12.7617C85.7269 12.8033 86.1695 12.9729 86.6106 13.2702C87.0518 13.5676 87.4159 13.9858 87.703 14.5249C87.9901 15.064 88.1222 15.7169 88.0993 16.4837C88.0776 17.2125 87.8924 17.863 87.5437 18.4353C87.1951 19.0075 86.6583 19.4534 85.9335 19.7728C85.2087 20.0923 84.2737 20.2349 83.1283 20.2007L77.875 20.0441ZM79.6821 18.5348L83.1749 18.6389C84.325 18.6732 85.148 18.4752 85.644 18.0447C86.1449 17.6096 86.4049 17.0726 86.4239 16.4337C86.4386 15.9415 86.3267 15.4834 86.0883 15.0594C85.85 14.6307 85.5027 14.2841 85.0464 14.0194C84.5902 13.75 84.045 13.6058 83.4109 13.5869L79.8329 13.4802L79.6821 18.5348ZM79.8786 11.9468L83.1442 12.0442C83.6743 12.06 84.1554 11.9701 84.5876 11.7746C85.0245 11.5792 85.374 11.2959 85.6361 10.9248C85.903 10.5538 86.044 10.1127 86.0593 9.60159C86.0783 8.96267 85.872 8.41414 85.4404 7.95599C85.009 7.49312 84.3105 7.24728 83.345 7.21848L80.0226 7.11939L79.8786 11.9468Z" fill="white"/>
    <path d="M109.806 15.6666C109.578 17.1836 109.107 18.4535 108.393 19.4763C107.679 20.499 106.8 21.2383 105.755 21.6942C104.709 22.1501 103.574 22.2859 102.347 22.1016C101.12 21.9174 100.074 21.4538 99.2088 20.711C98.3436 19.9682 97.7201 19.0032 97.3383 17.8159C96.9564 16.6285 96.8794 15.2764 97.1073 13.7593C97.3351 12.2422 97.806 10.9723 98.5198 9.94955C99.2336 8.9268 100.113 8.18749 101.158 7.73162C102.203 7.27575 103.339 7.13994 104.566 7.3242C105.793 7.50846 106.839 7.97199 107.704 8.71479C108.569 9.4576 109.193 10.4227 109.575 11.61C109.957 12.7973 110.034 14.1495 109.806 15.6666ZM108.12 15.4134C108.307 14.1679 108.257 13.0854 107.969 12.1659C107.685 11.2472 107.223 10.5146 106.582 9.96831C105.946 9.42268 105.192 9.08446 104.322 8.95365C103.451 8.82284 102.629 8.92441 101.855 9.25836C101.087 9.593 100.43 10.1575 99.8846 10.9517C99.3439 11.7467 98.98 12.767 98.7929 14.0125C98.6058 15.258 98.654 16.3401 98.9373 17.2588C99.2253 18.1783 99.6875 18.9108 100.324 19.4565C100.965 20.0028 101.721 20.3414 102.591 20.4722C103.462 20.603 104.282 20.5011 105.051 20.1664C105.824 19.8325 106.481 19.268 107.021 18.473C107.567 17.6788 107.933 16.6589 108.12 15.4134ZM106.049 3.95592L108.334 6.91334L106.592 6.65172L104.947 4.59487L102.799 6.08207L101.058 5.82045L104.11 3.66477L106.049 3.95592ZM108.817 5.60702L107.637 5.4298L107.831 4.13748C108.229 4.16846 108.527 4.16055 108.726 4.11377C108.925 4.0623 109.04 3.93121 109.072 3.72051C109.106 3.49576 109.003 3.31757 108.764 3.18595C108.53 3.05502 108.224 2.96108 107.844 2.90412L108.04 1.98546C108.883 2.11205 109.498 2.3505 109.886 2.70082C110.274 3.05115 110.432 3.46511 110.36 3.9427C110.297 4.36411 110.12 4.65111 109.829 4.80371C109.543 4.95232 109.235 5.02343 108.906 5.01705L108.817 5.60702Z" fill="white"/>
    <path d="M132.045 13.747L128.104 27.7486L126.464 27.2868L121.927 14.1463L121.791 14.1078L118.697 25.1013L117.002 24.6242L120.942 10.6225L122.583 11.0843L127.138 24.2599L127.275 24.2983L130.376 13.2775L132.045 13.747Z" fill="white"/>
    <path d="M149.839 25.3697C149.88 24.8682 149.855 24.3934 149.766 23.9453C149.683 23.4946 149.531 23.0771 149.312 22.6929C149.098 22.3104 148.815 21.9686 148.464 21.6675C148.112 21.3664 147.694 21.1144 147.21 20.9114C146.415 20.5785 145.606 20.4811 144.783 20.6192C143.961 20.7572 143.19 21.1454 142.471 21.7837C141.752 22.422 141.149 23.322 140.663 24.4837C140.176 25.6455 139.96 26.7073 140.014 27.6693C140.068 28.6313 140.341 29.4566 140.833 30.1451C141.325 30.8336 141.986 31.3516 142.815 31.6991C143.584 32.021 144.33 32.1406 145.052 32.0581C145.781 31.9731 146.435 31.6978 147.015 31.2323C147.601 30.7642 148.066 30.1196 148.41 29.2986L148.864 29.6119L144.828 27.922L145.432 26.4808L150.542 28.6205L149.938 30.0618C149.475 31.1667 148.837 32.0288 148.024 32.648C147.214 33.269 146.303 33.6316 145.289 33.7358C144.281 33.8375 143.245 33.6652 142.179 33.2189C140.991 32.7215 140.064 32.0049 139.399 31.0691C138.737 30.1352 138.372 29.0477 138.301 27.8067C138.235 26.5675 138.498 25.2404 139.09 23.8253C139.535 22.7641 140.076 21.8692 140.715 21.1408C141.36 20.4099 142.069 19.855 142.844 19.4761C143.619 19.0972 144.431 18.8983 145.281 18.8794C146.13 18.8606 146.986 19.0312 147.846 19.3915C148.553 19.6878 149.168 20.0709 149.69 20.541C150.218 21.0085 150.641 21.5372 150.958 22.127C151.282 22.7144 151.493 23.3443 151.592 24.0168C151.692 24.685 151.667 25.37 151.516 26.072L149.839 25.3697Z" fill="white"/>
</svg>
