<svg width="255" height="68" viewBox="0 0 255 68" fill="none" xmlns="http://www.w3.org/2000/svg">
    <path d="M20.3857 42.3192L18.564 43.5557C18.1006 43.1049 17.5996 42.7725 17.061 42.5587C16.5273 42.3415 15.9781 42.2279 15.4133 42.2179C14.8501 42.1996 14.2918 42.2781 13.7384 42.4535C13.185 42.6288 12.6586 42.886 12.1591 43.2251C11.2483 43.8433 10.5794 44.6336 10.1524 45.5958C9.73031 46.5548 9.60551 47.6302 9.77798 48.8222C9.95535 50.0108 10.4861 51.2565 11.3703 52.5591C12.2545 53.8616 13.2162 54.8148 14.2555 55.4184C15.2996 56.0187 16.3452 56.2997 17.3922 56.2614C18.4441 56.2198 19.4254 55.8898 20.3363 55.2716C20.8357 54.9325 21.2691 54.5382 21.6363 54.0886C22.0036 53.639 22.2843 53.1516 22.4786 52.6263C22.6744 52.0928 22.7699 51.538 22.7651 50.9619C22.7618 50.3775 22.6379 49.7892 22.3933 49.197L24.215 47.9604C24.5997 48.8223 24.817 49.6799 24.8668 50.5331C24.9166 51.3863 24.8168 52.2087 24.5673 53.0004C24.3145 53.7872 23.9275 54.5185 23.4062 55.1942C22.8898 55.8666 22.252 56.4605 21.493 56.9757C20.21 57.8466 18.8563 58.3077 17.4318 58.359C16.0074 58.4103 14.6164 58.0525 13.259 57.2858C11.9016 56.519 10.6844 55.3423 9.60742 53.7557C8.53043 52.1691 7.88617 50.6035 7.67464 49.0589C7.46311 47.5143 7.6441 46.0896 8.2176 44.7846C8.7911 43.4797 9.71935 42.3918 11.0024 41.5209C11.7614 41.0057 12.5487 40.6322 13.3642 40.4005C14.1847 40.1655 15.0089 40.0782 15.8367 40.1386C16.6613 40.1941 17.4608 40.4024 18.2354 40.7637C19.0066 41.12 19.7234 41.6385 20.3857 42.3192Z" fill="white"/>
    <path d="M35.1613 48.0798L26.905 31.8807L28.8666 30.8809L32.5432 38.0946L41.1807 33.6923L37.5041 26.4786L39.4657 25.4789L47.7219 41.678L45.7603 42.6778L42.0676 35.4325L33.4301 39.8347L37.1229 47.0801L35.1613 48.0798Z" fill="white"/>
    <path d="M67.8281 24.112C68.4743 25.9174 68.7069 27.5943 68.5257 29.1428C68.3444 30.6912 67.8131 32.0255 66.9317 33.1457C66.0502 34.2659 64.8796 35.0872 63.4196 35.6098C61.9597 36.1325 60.5337 36.2406 59.1416 35.9342C57.7495 35.6279 56.4921 34.9339 55.3694 33.8522C54.2467 32.7705 53.3622 31.3269 52.716 29.5215C52.0697 27.7161 51.8372 26.0392 52.0184 24.4907C52.1996 22.9423 52.7309 21.608 53.6124 20.4878C54.4938 19.3676 55.6645 18.5462 57.1244 18.0236C58.5844 17.501 60.0104 17.3929 61.4024 17.6992C62.7945 18.0056 64.0519 18.6996 65.1746 19.7813C66.2973 20.863 67.1818 22.3065 67.8281 24.112ZM65.822 24.83C65.2915 23.3478 64.5957 22.1856 63.7347 21.3434C62.8793 20.4992 61.9372 19.9658 60.9083 19.7432C59.8849 19.5186 58.855 19.5918 57.8186 19.9628C56.7821 20.3338 55.9369 20.9318 55.283 21.7568C54.6347 22.5798 54.245 23.5899 54.1141 24.7872C53.9888 25.9825 54.1914 27.3212 54.722 28.8034C55.2526 30.2857 55.9456 31.4489 56.801 32.2931C57.6619 33.1353 58.6041 33.6687 59.6274 33.8933C60.6563 34.1159 61.689 34.0417 62.7255 33.6707C63.7619 33.2997 64.6043 32.7027 65.2527 31.8797C65.9066 31.0547 66.2962 30.0446 66.4215 28.8493C66.5525 27.652 66.3526 26.3123 65.822 24.83ZM64.8558 39.6219C64.4713 39.7595 64.0929 39.7473 63.7205 39.5851C63.3537 39.421 63.1045 39.155 62.9728 38.7872C62.8412 38.4194 62.865 38.0557 63.0443 37.6961C63.2292 37.3345 63.5138 37.0848 63.8983 36.9472C64.2828 36.8096 64.6585 36.8228 65.0253 36.987C65.3976 37.1492 65.6496 37.4141 65.7813 37.7819C65.9129 38.1497 65.8863 38.5144 65.7015 38.876C65.5222 39.2356 65.2403 39.4843 64.8558 39.6219Z" fill="white"/>
    <path d="M90.0074 9.26825L93.9068 27.027L91.8257 27.484L79.0869 15.6654L78.9135 15.7035L81.9751 29.6469L79.8246 30.1191L75.9252 12.3603L78.0063 11.9034L90.7874 23.749L90.9608 23.7109L87.8916 9.73282L90.0074 9.26825Z" fill="white"/>
    <path d="M114.32 8.22045L114.264 6.26812L127.894 5.87755L127.95 7.82988L122.235 7.99363L122.7 24.2157L120.499 24.2787L120.035 8.05669L114.32 8.22045Z" fill="white"/>
    <path d="M137.441 24.3293L138.954 6.21058L145.076 6.72195C146.492 6.84018 147.634 7.17905 148.502 7.73855C149.37 8.29216 149.987 9.00595 150.354 9.87993C150.72 10.7539 150.859 11.7247 150.77 12.7922C150.681 13.8597 150.383 14.7881 149.878 15.5774C149.373 16.3667 148.649 16.9596 147.707 17.356C146.766 17.7466 145.593 17.8832 144.19 17.766L139.235 17.3522L139.401 15.3704L144.284 15.7784C145.252 15.8591 146.042 15.7826 146.655 15.5488C147.275 15.3154 147.739 14.9503 148.048 14.4535C148.363 13.9512 148.551 13.3374 148.611 12.6119C148.672 11.8864 148.589 11.2411 148.363 10.6758C148.137 10.1105 147.739 9.65554 147.168 9.31088C146.597 8.96033 145.822 8.74416 144.843 8.66238L140.986 8.34019L139.635 24.5126L137.441 24.3293ZM146.649 16.9024L150.428 25.4141L147.88 25.2013L144.172 16.6955L146.649 16.9024Z" fill="white"/>
    <path d="M177.767 10.8992L179.782 11.3252C179.542 12.4602 179.169 13.3795 178.663 14.0832C178.165 14.7824 177.497 15.2522 176.659 15.4926C175.829 15.7284 174.8 15.7166 173.573 15.4571L173.933 13.7546C174.743 13.926 175.4 13.9257 175.902 13.7536C176.41 13.5827 176.806 13.255 177.09 12.7706C177.379 12.2874 177.605 11.6636 177.767 10.8992ZM173.404 11.1023L175.559 11.5576L173.069 23.3357C172.812 24.5517 172.295 25.5768 171.52 26.4111C170.752 27.2408 169.791 27.8211 168.639 28.1521C167.487 28.4773 166.213 28.4924 164.818 28.1974C163.422 27.9024 162.264 27.3731 161.342 26.6097C160.422 25.8405 159.776 24.9204 159.403 23.8496C159.038 22.7742 158.984 21.6285 159.241 20.4125L161.731 8.6344L163.885 9.08978L161.432 20.6941C161.248 21.5627 161.276 22.3761 161.515 23.1344C161.755 23.8869 162.187 24.5318 162.811 25.0692C163.443 25.6019 164.254 25.9729 165.244 26.1823C166.234 26.3916 167.126 26.3804 167.919 26.1488C168.713 25.9114 169.369 25.4967 169.888 24.9045C170.413 24.3078 170.768 23.5752 170.951 22.7066L173.404 11.1023Z" fill="white"/>
    <path d="M204.254 19.1845L206.227 19.8906C205.688 21.3951 204.896 22.4223 203.851 22.9721C202.811 23.524 201.547 23.5336 200.059 23.001L200.646 21.3628C201.515 21.6739 202.247 21.6311 202.841 21.2342C203.436 20.8373 203.907 20.154 204.254 19.1845ZM201.349 29.196C200.703 31.0014 199.819 32.445 198.696 33.5267C197.573 34.6084 196.316 35.3024 194.924 35.6087C193.532 35.9151 192.106 35.8069 190.646 35.2843C189.186 34.7617 188.015 33.9403 187.134 32.8202C186.252 31.7 185.721 30.3657 185.54 28.8172C185.358 27.2688 185.591 25.5919 186.237 23.7864C186.883 21.981 187.768 20.5375 188.891 19.4558C190.013 18.3741 191.271 17.6801 192.663 17.3737C194.055 17.0674 195.481 17.1755 196.941 17.6981C198.401 18.2207 199.571 19.0421 200.453 20.1623C201.334 21.2824 201.866 22.6168 202.047 24.1652C202.228 25.7136 201.996 27.3906 201.349 29.196ZM199.343 28.4779C199.874 26.9957 200.074 25.6559 199.943 24.4587C199.817 23.2634 199.428 22.2533 198.774 21.4283C198.126 20.6053 197.283 20.0083 196.247 19.6373C195.21 19.2663 194.178 19.1921 193.149 19.4147C192.125 19.6393 191.183 20.1727 190.322 21.0149C189.467 21.8591 188.774 23.0223 188.243 24.5045C187.713 25.9868 187.51 27.3255 187.635 28.5208C187.766 29.718 188.156 30.7282 188.804 31.5512C189.458 32.3762 190.303 32.9742 191.34 33.3452C192.376 33.7162 193.406 33.7894 194.429 33.5648C195.458 33.3422 196.401 32.8088 197.256 31.9646C198.117 31.1224 198.813 29.9601 199.343 28.4779ZM196.644 15.8944L195.424 11.0826L197.731 11.9084L198.382 16.5167L196.644 15.8944Z" fill="white"/>
    <path d="M227.91 31.7994L219.654 47.9986L217.756 47.031L215.411 29.8132L215.253 29.7325L208.77 42.4514L206.808 41.4516L215.065 25.2525L216.963 26.22L219.323 43.4856L219.482 43.5663L225.98 30.8157L227.91 31.7994Z" fill="white"/>
    <path d="M244.901 49.3188C245.075 48.7145 245.163 48.1267 245.164 47.5555C245.174 46.9827 245.092 46.4337 244.919 45.9086C244.751 45.3868 244.49 44.8979 244.134 44.4418C243.778 43.9858 243.329 43.5733 242.785 43.2043C241.894 42.5994 240.927 42.2794 239.885 42.2444C238.843 42.2094 237.802 42.4938 236.763 43.0974C235.724 43.701 234.762 44.6541 233.878 45.9567C232.994 47.2593 232.465 48.5066 232.293 49.6986C232.12 50.8906 232.25 51.9693 232.682 52.9349C233.114 53.9005 233.795 54.699 234.725 55.3306C235.587 55.9156 236.471 56.2472 237.376 56.3254C238.29 56.402 239.16 56.227 239.986 55.8005C240.82 55.3725 241.55 54.6981 242.175 53.7775L242.653 54.274L238.128 51.2026L239.225 49.5866L244.955 53.4757L243.858 55.0917C243.017 56.3306 242.021 57.2285 240.871 57.7852C239.725 58.3452 238.518 58.5633 237.25 58.4395C235.991 58.3141 234.763 57.8458 233.569 57.0347C232.237 56.1306 231.279 55.0228 230.696 53.7112C230.117 52.403 229.939 50.9799 230.16 49.4419C230.386 47.9073 231.038 46.3467 232.115 44.7601C232.923 43.5701 233.808 42.6082 234.771 41.8742C235.743 41.1387 236.75 40.6349 237.793 40.3629C238.836 40.0909 239.88 40.0488 240.926 40.2364C241.972 40.4241 242.977 40.8454 243.942 41.5002C244.735 42.0387 245.393 42.6606 245.916 43.3659C246.447 44.0696 246.834 44.8223 247.076 45.6237C247.327 46.4236 247.43 47.2477 247.383 48.096C247.34 48.9394 247.139 49.7725 246.781 50.5952L244.901 49.3188Z" fill="white"/>
</svg>
