<svg width="151" height="40" viewBox="0 0 151 40" fill="none" xmlns="http://www.w3.org/2000/svg">
    <path d="M13.4716 32.4945L10.2827 33.9231L9.64386 32.4972L12.7291 31.115C13.8267 30.6234 14.6414 30.0041 15.1733 29.2574C15.7052 28.5107 15.9732 27.6669 15.9771 26.726C15.9811 25.7852 15.7411 24.7746 15.2571 23.6944C14.7771 22.6227 14.1888 21.7786 13.4923 21.1619C12.7938 20.5409 12.0038 20.1788 11.1223 20.0757C10.2389 19.9682 9.27861 20.1467 8.24155 20.6113L4.89704 22.1096L4.25824 20.6836L7.70646 19.1389C8.99413 18.5621 10.2151 18.3342 11.3692 18.4553C12.5214 18.5721 13.5633 19.0159 14.4949 19.7867C15.4246 20.5531 16.1972 21.6234 16.8127 22.9975C17.4322 24.3802 17.7192 25.681 17.6737 26.8999C17.6263 28.1144 17.2517 29.2006 16.5497 30.1584C15.8458 31.1119 14.8198 31.8906 13.4716 32.4945ZM5.03603 20.3352L10.9827 33.6095L9.37524 34.3296L3.4286 21.0553L5.03603 20.3352ZM4.52795 28.9989L3.99368 27.8063L9.69749 25.2511L10.2318 26.4437L4.52795 28.9989Z" fill="white"/>
    <path d="M24.7911 12.4878L29.344 26.3023L27.6712 26.8537L23.1182 13.0391L24.7911 12.4878Z" fill="white"/>
    <path d="M38.0002 23.7095L34.7478 9.53235L43.304 7.56947L43.6533 9.0924L36.814 10.6614L37.9129 15.4518L44.3093 13.9844L44.6587 15.5073L38.2623 16.9747L39.3676 21.7927L46.3178 20.1983L46.6671 21.7212L38.0002 23.7095ZM38.883 4.56138L42.2855 6.43321L40.2918 6.89058L38.3768 5.78511L37.1352 7.61475L35.1415 8.07212L37.3601 4.91076L38.883 4.56138ZM33.5668 4.00303L35.4739 6.21788L34.0618 6.54185L31.5177 4.4731L33.5668 4.00303Z" fill="white"/>
    <path d="M62.3992 4.9251L64.1513 4.74434L65.1396 14.3242C65.2417 15.3132 65.0996 16.2204 64.7135 17.0456C64.3317 17.8657 63.7423 18.5429 62.9454 19.0773C62.148 19.607 61.1818 19.9304 60.0467 20.0475C58.9116 20.1646 57.8997 20.0453 57.011 19.6895C56.1217 19.3291 55.4041 18.7867 54.8582 18.0624C54.3164 17.3329 53.9946 16.4736 53.8925 15.4845L52.9042 5.9047L54.6562 5.72394L55.63 15.1625C55.7029 15.869 55.9232 16.4817 56.2909 17.0007C56.6581 17.5149 57.1453 17.9002 57.7524 18.1565C58.3638 18.4076 59.0722 18.4916 59.8776 18.4085C60.683 18.3254 61.3593 18.0985 61.9065 17.7279C62.4533 17.3526 62.8515 16.876 63.1013 16.298C63.3553 15.7149 63.4459 15.0701 63.373 14.3636L62.3992 4.9251Z" fill="white"/>
    <path d="M84.8962 19.2143L86.3409 4.74081L88.0936 4.91576L87.3769 12.096L87.5465 12.1129L94.765 5.5817L97.0547 5.81026L90.3252 11.7336L95.61 20.2838L93.4899 20.0722L89.1296 12.842L87.1173 14.6967L86.6488 19.3893L84.8962 19.2143Z" fill="white"/>
    <path d="M108.107 7.77632L105.232 22.0348L103.506 21.6866L106.381 7.42815L108.107 7.77632Z" fill="white"/>
    <path d="M114.038 24.0624L118.223 10.132L126.63 12.6577L126.18 14.1541L119.46 12.1352L118.046 16.8422L124.331 18.7303L123.882 20.2267L117.597 18.3386L116.174 23.0728L123.003 25.1244L122.554 26.6208L114.038 24.0624ZM124.204 10.5642L123.361 8.23464L121.374 9.71416L119.85 9.25644L119.883 9.14761L122.937 6.98005L124.406 7.42143L125.76 10.9131L125.727 11.0219L124.204 10.5642ZM117.054 28.7357C116.741 28.6417 116.503 28.4541 116.34 28.1729C116.182 27.893 116.148 27.6034 116.238 27.3041C116.328 27.0048 116.516 26.782 116.802 26.6356C117.093 26.4906 117.395 26.4651 117.708 26.5591C118.021 26.6531 118.256 26.84 118.414 27.1199C118.577 27.4011 118.613 27.6914 118.523 27.9907C118.434 28.29 118.243 28.5121 117.952 28.6571C117.666 28.8035 117.367 28.8297 117.054 28.7357Z" fill="white"/>
    <path d="M146.384 20.6377L140.482 33.9317L138.924 33.24L136.314 19.5857L136.184 19.5281L131.55 29.9659L129.94 29.2511L135.843 15.9572L137.401 16.6489L140.025 30.3407L140.155 30.3983L144.801 19.9345L146.384 20.6377Z" fill="white"/>
</svg>
