<svg width="117" height="36" viewBox="0 0 117 36" fill="none" xmlns="http://www.w3.org/2000/svg">
    <path d="M15.9067 16.2866L14.2841 16.9719C13.991 16.5458 13.6499 16.2067 13.2608 15.9547C12.876 15.7009 12.4629 15.5259 12.0213 15.4297C11.5823 15.3273 11.132 15.3017 10.6704 15.3527C10.2088 15.4038 9.75558 15.5232 9.31068 15.7112C8.49941 16.0538 7.85105 16.5693 7.36561 17.2575C6.88454 17.9438 6.61848 18.7681 6.56744 19.7303C6.52077 20.6906 6.74246 21.7508 7.23253 22.9111C7.7226 24.0713 8.32812 24.9694 9.04911 25.6055C9.77445 26.2397 10.5508 26.6236 11.3783 26.7573C12.2101 26.8891 13.0316 26.7836 13.8429 26.441C14.2878 26.253 14.6894 26.0114 15.0479 25.7161C15.4063 25.4208 15.7027 25.0823 15.9373 24.7005C16.1743 24.3126 16.336 23.8922 16.4223 23.4394C16.5111 22.9804 16.5058 22.4995 16.4065 21.9966L18.0291 21.3112C18.1962 22.0476 18.2326 22.7544 18.1383 23.4316C18.044 24.1088 17.8371 24.7384 17.5176 25.3206C17.1962 25.8983 16.7782 26.4116 16.2636 26.8602C15.7533 27.3071 15.1601 27.6733 14.484 27.9588C13.3413 28.4415 12.2071 28.5917 11.0815 28.4092C9.95586 28.2267 8.9205 27.7286 7.97538 26.9148C7.03026 26.101 6.25924 24.9875 5.66232 23.5743C5.06539 22.1611 4.80469 20.8321 4.88021 19.5871C4.95573 18.3422 5.32048 17.2527 5.97444 16.3186C6.62841 15.3844 7.52677 14.676 8.66954 14.1933C9.34561 13.9077 10.0217 13.7378 10.6978 13.6835C11.3782 13.6274 12.0385 13.6877 12.6786 13.8645C13.3168 14.037 13.9115 14.3255 14.4628 14.73C15.0121 15.1301 15.4934 15.649 15.9067 16.2866Z" fill="white"/>
    <path d="M27.3504 23.0849L24.1196 8.90281L25.8369 8.51158L27.2756 14.8271L34.8376 13.1044L33.3989 6.7889L35.1162 6.39767L38.347 20.5798L36.6297 20.971L35.1846 14.6278L27.6227 16.3505L29.0677 22.6937L27.3504 23.0849Z" fill="white"/>
    <path d="M47.1949 4.9165L48.4709 19.4059L46.7163 19.5604L45.4403 5.07102L47.1949 4.9165Z" fill="white"/>
    <path d="M68.2031 19.4113L70.1773 5.00046L75.0466 5.66753C76.1771 5.82241 77.0733 6.15307 77.7351 6.65952C78.4023 7.16192 78.8622 7.78169 79.1148 8.51882C79.3675 9.25596 79.4357 10.0491 79.3194 10.8981C79.203 11.7472 78.9238 12.4951 78.4815 13.1418C78.044 13.7892 77.438 14.2701 76.6638 14.5846C75.8901 14.8944 74.9427 14.9725 73.8216 14.8189L70.3314 14.3408L70.5435 12.7927L73.9773 13.2632C74.7514 13.3692 75.3912 13.3206 75.897 13.1175C76.4027 12.9144 76.7923 12.5998 77.0657 12.1737C77.3445 11.7435 77.5234 11.2399 77.6025 10.6629C77.6815 10.0859 77.6443 9.55514 77.4908 9.07055C77.3421 8.5866 77.0485 8.18317 76.61 7.86026C76.1722 7.53265 75.5616 7.31518 74.7782 7.20786L71.7103 6.78757L69.9481 19.6504L68.2031 19.4113Z" fill="white"/>
    <path d="M85.585 22.3961L89.9257 8.51342L91.6068 9.03905L89.6738 15.2212L97.0761 17.5357L99.0091 11.3535L100.69 11.8792L96.3495 25.7618L94.6684 25.2362L96.6098 19.027L89.2075 16.7125L87.2661 22.9217L85.585 22.3961Z" fill="white"/>
    <path d="M111.875 16.6741L105.69 29.8392L104.096 29.0902L110.281 15.9252L111.875 16.6741ZM111.012 14.6364L113.981 12.3906L115.756 13.2241L112.349 15.2646L111.012 14.6364Z" fill="white"/>
</svg>
