<svg width="216" height="47" viewBox="0 0 216 47" fill="none" xmlns="http://www.w3.org/2000/svg">
    <path d="M15.9357 26.9313L14.3199 27.6324C14.0226 27.2091 13.6782 26.8734 13.2867 26.6253C12.8995 26.3752 12.4846 26.2043 12.0421 26.1124C11.6021 26.0143 11.1516 25.993 10.6905 26.0485C10.2295 26.1041 9.77743 26.228 9.33439 26.4203C8.52649 26.7708 7.88319 27.2926 7.40449 27.9855C6.93013 28.6765 6.67213 29.5033 6.63048 30.4659C6.59317 31.4266 6.82519 32.4847 7.32655 33.6401C7.82792 34.7954 8.44217 35.6876 9.16932 36.3166C9.90082 36.9438 10.6809 37.3201 11.5096 37.4457C12.3427 37.5694 13.1631 37.4559 13.971 37.1053C14.4141 36.9131 14.8134 36.6676 15.1689 36.3688C15.5244 36.07 15.8175 35.7286 16.0483 35.3445C16.2816 34.9543 16.4391 34.5324 16.521 34.0788C16.6054 33.6189 16.5954 33.1381 16.4912 32.6362L18.107 31.935C18.2813 32.6697 18.3246 33.3761 18.2369 34.0542C18.1492 34.7323 17.9484 35.3639 17.6346 35.9491C17.3189 36.53 16.9059 37.0473 16.3957 37.501C15.8898 37.9528 15.3002 38.3247 14.627 38.6169C13.4889 39.1107 12.3563 39.2719 11.2289 39.1004C10.1016 38.9289 9.06143 38.4409 8.10842 37.6364C7.15541 36.8318 6.37356 35.7259 5.76288 34.3186C5.1522 32.9113 4.87855 31.5849 4.94193 30.3393C5.0053 29.0937 5.3594 28.0006 6.00423 27.0601C6.64905 26.1197 7.54047 25.4025 8.67847 24.9087C9.35172 24.6166 10.0261 24.44 10.7016 24.3792C11.3815 24.3164 12.0424 24.3703 12.6841 24.5409C13.324 24.7071 13.9215 24.9897 14.4766 25.3889C15.0299 25.7836 15.5162 26.2978 15.9357 26.9313Z" fill="white"/>
    <path d="M27.4932 33.2006L22.8487 19.4166L24.5178 18.8542L26.5861 24.9924L33.9358 22.5159L31.8675 16.3777L33.5367 15.8153L38.1812 29.5993L36.512 30.1618L34.4347 23.9966L27.085 26.4731L29.1623 32.6382L27.4932 33.2006Z" fill="white"/>
    <path d="M56.5796 17.2312C56.942 18.7218 56.986 20.0755 56.7116 21.2922C56.4373 22.5088 55.9024 23.5257 55.107 24.3428C54.3116 25.1598 53.3112 25.7149 52.1058 26.0079C50.9003 26.301 49.7568 26.2671 48.675 25.9064C47.5933 25.5456 46.6513 24.8878 45.849 23.9329C45.0468 22.9779 44.4645 21.7551 44.1021 20.2644C43.7397 18.7738 43.6957 17.4201 43.97 16.2034C44.2444 14.9868 44.7792 13.9699 45.5746 13.1528C46.37 12.3358 47.3705 11.7807 48.5759 11.4877C49.7813 11.1946 50.9249 11.2285 52.0066 11.5892C53.0884 11.95 54.0304 12.6078 54.8326 13.5627C55.6349 14.5177 56.2172 15.7405 56.5796 17.2312ZM54.9233 17.6338C54.6258 16.41 54.1699 15.4269 53.5558 14.6845C52.9462 13.9409 52.2415 13.4374 51.4416 13.1738C50.6464 12.9091 49.8209 12.8807 48.9651 13.0888C48.1094 13.2968 47.3867 13.7015 46.7971 14.3029C46.2121 14.9031 45.8172 15.674 45.6124 16.6155C45.4122 17.5559 45.4609 18.638 45.7584 19.8618C46.0559 21.0856 46.5094 22.0693 47.119 22.8128C47.7331 23.5552 48.4378 24.0588 49.2331 24.3235C50.033 24.5871 50.8608 24.6149 51.7165 24.4068C52.5723 24.1988 53.2927 23.7947 53.8777 23.1944C54.4673 22.5931 54.8622 21.8222 55.0623 20.8818C55.2671 19.9403 55.2208 18.8576 54.9233 17.6338ZM52.9111 29.3206C52.5936 29.3977 52.2936 29.3562 52.011 29.1958C51.7329 29.0344 51.557 28.8019 51.4832 28.4982C51.4094 28.1945 51.4589 27.9072 51.6318 27.6362C51.8093 27.364 52.0567 27.1893 52.3742 27.1121C52.6917 27.035 52.9894 27.0771 53.2674 27.2385C53.55 27.3989 53.7282 27.6308 53.802 27.9345C53.8759 28.2382 53.824 28.5261 53.6466 28.7982C53.4737 29.0693 53.2285 29.2434 52.9111 29.3206Z" fill="white"/>
    <path d="M75.9064 6.53769L78.0778 20.9202L76.3923 21.1746L66.8502 11.0653L66.7097 11.0865L68.4145 22.379L66.6729 22.6419L64.5016 8.25947L66.187 8.00502L75.7615 18.1382L75.902 18.117L74.1929 6.79638L75.9064 6.53769Z" fill="white"/>
    <path d="M97.1205 6.26966L97.0875 4.70751L107.994 4.4773L108.027 6.03945L103.454 6.13597L103.728 19.116L101.967 19.1532L101.693 6.17314L97.1205 6.26966Z" fill="white"/>
    <path d="M116.022 19.1741L116.82 4.65049L121.727 4.92003C122.862 4.98235 123.782 5.22734 124.489 5.655C125.196 6.07794 125.706 6.63468 126.019 7.32523C126.332 8.01579 126.465 8.78892 126.418 9.64464C126.371 10.5004 126.154 11.2495 125.768 11.8922C125.382 12.5349 124.817 13.0255 124.073 13.3639C123.329 13.6977 122.394 13.8337 121.269 13.7719L117.298 13.5538L117.385 11.9652L121.3 12.1803C122.075 12.2228 122.705 12.1436 123.191 11.9427C123.681 11.742 124.043 11.4395 124.279 11.0351C124.52 10.6263 124.656 10.1311 124.688 9.5496C124.72 8.96809 124.639 8.45389 124.445 8.00699C124.252 7.5601 123.923 7.20534 123.458 6.94273C122.994 6.67539 122.369 6.52016 121.585 6.47706L118.493 6.30723L117.781 19.2706L116.022 19.1741ZM123.216 13.0253L126.432 19.7458L124.39 19.6337L121.231 12.9162L123.216 13.0253Z" fill="white"/>
    <path d="M148.764 6.95249L150.395 7.1847C150.264 8.10347 150.016 8.85724 149.65 9.44601C149.289 10.0308 148.781 10.4415 148.126 10.6782C147.476 10.9109 146.654 10.9565 145.66 10.815L145.856 9.43686C146.512 9.53027 147.036 9.49486 147.428 9.33061C147.824 9.16702 148.123 8.8843 148.323 8.48243C148.529 8.08123 148.676 7.57125 148.764 6.95249ZM145.293 7.34796L147.036 7.59618L145.679 17.1308C145.539 18.1151 145.182 18.961 144.608 19.6684C144.039 20.3718 143.303 20.8864 142.401 21.2123C141.499 21.5335 140.483 21.6137 139.354 21.4529C138.224 21.2921 137.271 20.9316 136.494 20.3716C135.719 19.8068 135.154 19.107 134.799 18.2722C134.45 17.4333 134.345 16.5217 134.485 15.5373L135.842 6.00276L137.586 6.25098L136.249 15.6449C136.149 16.3481 136.215 16.9959 136.446 17.5884C136.678 18.1762 137.057 18.6678 137.585 19.0633C138.117 19.4547 138.784 19.7075 139.586 19.8216C140.387 19.9357 141.098 19.8791 141.719 19.6518C142.34 19.4198 142.842 19.0536 143.224 18.5532C143.612 18.0488 143.855 17.445 143.955 16.7419L145.293 7.34796Z" fill="white"/>
    <path d="M171.356 11.6027L172.986 11.9918C172.689 13.2353 172.149 14.1214 171.366 14.65C170.587 15.1798 169.583 15.2979 168.354 15.0045L168.677 13.6504C169.395 13.8219 169.973 13.7238 170.412 13.3562C170.85 12.9886 171.165 12.4041 171.356 11.6027ZM169.921 19.818C169.565 21.3102 168.988 22.5354 168.19 23.4937C167.391 24.452 166.452 25.1139 165.372 25.4792C164.292 25.8445 163.148 25.8831 161.942 25.5952C160.735 25.3073 159.732 24.7564 158.933 23.9427C158.135 23.129 157.595 22.1144 157.316 20.8989C157.036 19.6834 157.075 18.3296 157.431 16.8374C157.787 15.3452 158.364 14.1199 159.162 13.1616C159.961 12.2033 160.9 11.5415 161.98 11.1762C163.06 10.8109 164.204 10.7722 165.41 11.0601C166.617 11.3481 167.62 11.8989 168.419 12.7126C169.217 13.5263 169.757 14.5409 170.036 15.7564C170.315 16.9719 170.277 18.3258 169.921 19.818ZM168.263 19.4223C168.555 18.1972 168.597 17.1144 168.388 16.1738C168.184 15.2342 167.786 14.465 167.194 13.8662C166.607 13.2684 165.884 12.8673 165.028 12.6629C164.171 12.4584 163.343 12.4897 162.545 12.7567C161.751 13.0247 161.048 13.5313 160.437 14.2763C159.831 15.0224 159.381 16.008 159.089 17.233C158.797 18.4581 158.752 19.5404 158.957 20.4799C159.165 21.4206 159.564 22.1898 160.151 22.7875C160.743 23.3864 161.468 23.7881 162.324 23.9925C163.181 24.1969 164.006 24.1651 164.8 23.897C165.599 23.63 166.302 23.1235 166.908 22.3774C167.519 21.6324 167.971 20.6474 168.263 19.4223ZM165.016 9.6518L163.626 5.932L165.532 6.387L166.453 9.9947L165.016 9.6518Z" fill="white"/>
    <path d="M191.997 19.0971L187.382 32.8909L185.765 32.35L181.873 19.0047L181.738 18.9596L178.114 29.7899L176.444 29.231L181.059 15.4372L182.676 15.9781L186.586 29.3594L186.721 29.4044L190.354 18.5472L191.997 19.0971Z" fill="white"/>
    <path d="M209.155 30.9799C209.202 30.479 209.184 30.0039 209.1 29.5546C209.023 29.1029 208.877 28.6835 208.663 28.2965C208.453 27.9113 208.175 27.5659 207.827 27.2603C207.48 26.9547 207.065 26.6973 206.583 26.4881C205.793 26.1451 204.985 26.0373 204.161 26.1647C203.336 26.2922 202.561 26.6704 201.833 27.2994C201.106 27.9284 200.492 28.8206 199.991 29.976C199.489 31.1314 199.259 32.1904 199.301 33.153C199.343 34.1156 199.605 34.9443 200.088 35.6391C200.571 36.3339 201.225 36.8603 202.051 37.2184C202.815 37.5502 203.559 37.6794 204.282 37.6062C205.012 37.5306 205.67 37.2637 206.256 36.8057C206.848 36.3452 207.321 35.7066 207.675 34.89L208.125 35.2091L204.112 33.4676L204.734 32.0342L209.816 34.2394L209.194 35.6728C208.717 36.7717 208.068 37.6255 207.246 38.2342C206.429 38.8448 205.513 39.1956 204.498 39.2868C203.489 39.3755 202.455 39.1899 201.395 38.73C200.213 38.2173 199.296 37.4888 198.642 36.5446C197.993 35.6022 197.641 34.5101 197.587 33.2683C197.536 32.0284 197.816 30.7048 198.427 29.2975C198.885 28.242 199.438 27.3542 200.086 26.634C200.74 25.9114 201.457 25.3657 202.236 24.9968C203.016 24.6279 203.831 24.4395 204.681 24.4315C205.53 24.4236 206.383 24.6052 207.239 24.9766C207.943 25.2819 208.552 25.6729 209.068 26.1496C209.59 26.6239 210.006 27.158 210.316 27.7519C210.632 28.3433 210.835 28.9759 210.925 29.6496C211.016 30.319 210.982 31.0037 210.823 31.7036L209.155 30.9799Z" fill="white"/>
</svg>
